<?xml version="1.0" encoding="utf-8"?>
<!-- Generator: Adobe Illustrator 19.1.0, SVG Export Plug-In . SVG Version: 6.00 Build 0)  -->
<svg version="1.1" id="Layer_2" xmlns="http://www.w3.org/2000/svg" xmlns:xlink="http://www.w3.org/1999/xlink" x="0px" y="0px"
	 viewBox="0 0 51.309 57.587" style="enable-background:new 0 0 51.309 57.587;" xml:space="preserve">
<style type="text/css">
	.st0{fill:none;stroke:#9b9b9b;stroke-width:1.156;stroke-miterlimit:10;}
</style>
<g>
	<circle class="st0" cx="19.698" cy="7.833" r="2.269"/>
	<circle class="st0" cx="9.336" cy="44.591" r="2.269"/>
	<circle class="st0" cx="47.478" cy="35.328" r="2.269"/>
	<path class="st0" d="M25.654,1.502c-1.841,0-3.556,1.569-5,4.275c0.775,0.361,1.313,1.145,1.313,2.056
		c0,1.253-1.016,2.269-2.269,2.269c-0.273,0-0.534-0.051-0.777-0.139c-1.592,4.898-2.569,11.529-2.569,18.83
		c0,15.073,4.165,27.292,9.302,27.292c5.137,0,9.302-12.219,9.302-27.292S30.792,1.502,25.654,1.502z"/>
	<path class="st0" d="M47.478,37.597c-1.253,0-2.269-1.016-2.269-2.269c0-0.794,0.409-1.492,1.027-1.898
		c-3.392-4.105-9.023-8.704-15.931-12.692c-13.053-7.536-25.717-10.039-28.286-5.59c-2.569,4.449,5.931,14.165,18.984,21.701
		s25.717,10.039,28.286,5.59c0.774-1.34,0.542-3.159-0.515-5.251C48.407,37.445,47.961,37.597,47.478,37.597z"/>
	<path class="st0" d="M49.29,15.148c-2.569-4.449-15.233-1.946-28.286,5.59S-0.549,37.99,2.019,42.439
		c0.8,1.386,2.581,2.097,5.048,2.192c0.006-1.248,1.019-2.258,2.269-2.258c1.123,0,2.053,0.817,2.235,1.888
		c5.22-0.919,11.924-3.48,18.734-7.412C43.359,29.313,51.858,19.597,49.29,15.148z"/>
</g>
</svg>
