<?xml version="1.0" encoding="utf-8"?>
<!-- Generator: Adobe Illustrator 19.1.0, SVG Export Plug-In . SVG Version: 6.00 Build 0)  -->
<svg version="1.1" id="Layer_1" xmlns="http://www.w3.org/2000/svg" xmlns:xlink="http://www.w3.org/1999/xlink" x="0px" y="0px"
	 viewBox="0 0 41.654 55.176" style="enable-background:new 0 0 41.654 55.176;" xml:space="preserve">
<style type="text/css">
	.st0{fill:none;stroke:#9b9b9b;stroke-width:1.1538;stroke-miterlimit:10;}
	.st1{fill:#9b9b9b;stroke:#9b9b9b;stroke-width:0.2308;stroke-miterlimit:10;}
	.st2{fill:#9b9b9b;stroke:#9b9b9b;stroke-width:0.1;stroke-miterlimit:10;}
</style>
<g>
	<circle class="st0" cx="21.043" cy="13.143" r="6.886"/>
	<polyline class="st0" points="25.847,18.522 39.668,48.16 37.782,49.04 35.896,49.919 22.075,20.281 	"/>
	<polygon class="st1" points="36.064,51.254 40.285,54.407 40.583,49.147 	"/>
	<polygon class="st2" points="3.324,49.137 1.667,52.691 1.713,52.713 1.764,54.486 3.155,53.385 3.201,53.407 4.858,49.853 	"/>
	<path class="st0" d="M30.199,37.703c0,0-10.516,7.254-25.017-1.175c0,0-4.11-2.012-2.136-4.226
		c1.381-1.643,4.789,0.615,4.789,0.615c12.96,6.804,20.411,0.778,20.411,0.778L30.199,37.703z"/>
	<g>
		<path class="st0" d="M12.737,35.002l6.946-14.896l-3.1-1.446L9.544,33.755C10.653,34.262,11.717,34.672,12.737,35.002z"/>
		<path class="st0" d="M7.644,37.829l-4.882,10.47l1.55,0.723l1.55,0.723l4.947-10.61C9.783,38.778,8.727,38.346,7.644,37.829z"/>
	</g>
	<path class="st0" d="M21.043,6.257c0.418,0,0.827,0.039,1.225,0.111V1.383c0-0.382-0.31-0.692-0.692-0.692H20.51
		c-0.382,0-0.692,0.31-0.692,0.692v4.985C20.215,6.296,20.624,6.257,21.043,6.257z"/>
</g>
</svg>
