<?xml version="1.0" encoding="utf-8"?>
<!-- Generator: Adobe Illustrator 19.1.0, SVG Export Plug-In . SVG Version: 6.00 Build 0)  -->
<svg version="1.1" id="Layer_1" xmlns="http://www.w3.org/2000/svg" xmlns:xlink="http://www.w3.org/1999/xlink" x="0px" y="0px"
	 viewBox="0 0 70.843 46.111" style="enable-background:new 0 0 70.843 46.111;" xml:space="preserve">
<style type="text/css">
	.st0{fill:none;stroke:#9b9b9b;stroke-width:1.1563;stroke-miterlimit:10;}
</style>
<g>
	<path class="st0" d="M5.722,44.607l-4.282-8.298c-0.175-0.339-0.041-0.76,0.298-0.935l3.021-0.352
		c0.271-0.14,0.608-0.033,0.748,0.239l3.426,6.638c0.14,0.271,0.033,0.608-0.239,0.748l-2.037,2.258
		C6.317,45.08,5.897,44.946,5.722,44.607z"/>
	<path class="st0" d="M29.234,33.093l-4.788-9.277c-0.142-0.275-0.033-0.615,0.242-0.757l2.435-1.618
		c0.29-0.15,0.65-0.035,0.799,0.255l5.054,9.793c0.15,0.29,0.035,0.65-0.255,0.799l-2.729,1.047
		C29.716,33.476,29.375,33.368,29.234,33.093z"/>
	<path class="st0" d="M46.496,25.876L40.33,13.927c-0.142-0.275-0.033-0.615,0.242-0.757l3.317-2.167
		c0.29-0.15,0.65-0.035,0.799,0.255l6.509,12.613c0.15,0.29,0.035,0.65-0.255,0.799l-3.688,1.448
		C46.979,26.259,46.638,26.15,46.496,25.876z"/>
	<line class="st0" x1="5.345" y1="34.949" x2="24.966" y2="24.823"/>
	<line class="st0" x1="40.4" y1="14.063" x2="26.944" y2="21.533"/>
	<path class="st0" d="M51.494,24.4l17.071-8.222c0.935-0.454,1.312-1.589,0.835-2.512L63.552,2.333
		c-0.475-0.921-1.615-1.272-2.526-0.778l-16.585,9.178L51.494,24.4z"/>
	<line class="st0" x1="9.093" y1="42.211" x2="28.714" y2="32.085"/>
	<line class="st0" x1="46.426" y1="25.739" x2="32.542" y2="32.379"/>
</g>
</svg>
