<?xml version="1.0" encoding="utf-8"?>
<!-- Generator: Adobe Illustrator 19.1.0, SVG Export Plug-In . SVG Version: 6.00 Build 0)  -->
<svg version="1.1" id="Layer_1" xmlns="http://www.w3.org/2000/svg" xmlns:xlink="http://www.w3.org/1999/xlink" x="0px" y="0px"
	 viewBox="0 0 150 150" style="enable-background:new 0 0 150 150;" xml:space="preserve">
<style type="text/css">
	.st0{fill:#FFFFFF;}
	.st1{fill:#CF0A2C;}
</style>
<g>
	<path class="st0" d="M142.211,142.212H7.789V7.788h134.422V142.212z M10.19,139.812h129.621V10.188H10.19V139.812z"/>
	<g>
		<polygon class="st0" points="48.289,69.978 48.289,57.003 44.039,65.445 41.101,65.445 36.817,57.003 36.817,69.978 
			32.471,69.978 32.471,47.72 36.758,47.72 42.569,59.751 48.354,47.72 52.635,47.72 52.635,69.978 		"/>
		<polygon class="st0" points="61.354,69.978 61.354,47.72 76.016,47.72 76.016,51.595 65.697,51.595 65.697,56.814 74.482,56.814 
			74.482,60.694 65.697,60.694 65.697,66.101 76.016,66.101 76.016,69.978 		"/>
		<polygon class="st0" points="92.945,51.595 92.945,69.978 88.599,69.978 88.599,51.595 82.783,51.595 82.783,47.72 98.76,47.72 
			98.76,51.595 		"/>
		<path class="st0" d="M111.734,54.282l-2.815,8.096h5.53L111.734,54.282z M116.922,69.978l-1.312-3.941h-7.908l-1.347,3.941h-4.532
			l8.101-22.258h3.406l8.127,22.258H116.922z"/>
		<polygon class="st0" points="61.626,102.851 61.626,80.593 65.969,80.593 65.969,98.974 76.064,98.974 76.064,102.851 		"/>
		<path class="st0" d="M90.568,87.154l-2.812,8.102h5.529L90.568,87.154z M95.756,102.851l-1.314-3.941h-7.905l-1.345,3.941h-4.533
			l8.097-22.258h3.408l8.126,22.258H95.756z"/>
		<path class="st0" d="M114.591,93.503h-4.531v5.471h4.531c1.972,0,2.909-1.25,2.909-2.752
			C117.5,94.722,116.562,93.503,114.591,93.503 M114.307,84.468h-4.247v5.129h4.247c1.848,0,2.879-1.035,2.879-2.566
			C117.186,85.501,116.154,84.468,114.307,84.468 M115.029,102.851h-9.315V80.593h8.939c4.346,0,6.877,2.438,6.877,6.252
			c0,2.469-1.627,4.062-2.748,4.594c1.341,0.625,3.059,2.033,3.059,5C121.841,100.601,118.999,102.851,115.029,102.851"/>
		<polygon class="st1" points="43.779,92.681 43.779,101.839 41.402,101.839 41.402,92.681 32.238,92.681 32.238,90.3 41.402,90.3 
			41.402,81.193 43.779,81.193 43.779,90.3 52.888,90.3 52.888,92.681 		"/>
	</g>
</g>
</svg>
